o collider
v -0.6000000238418579 1.2796523571014404 1.098831295967102
v -0.6000000238418579 -0.7191475629806519 1.098831295967102
v 0.6000000238418579 -0.7191475629806519 1.098831295967102
v 0.6000000238418579 1.2796523571014404 1.098831295967102
v -0.6000000238418579 -1.2796523571014404 0.3763654828071594
v 0.6000000238418579 -1.2796523571014404 0.3763654828071594
v -0.6000000238418579 1.2796523571014404 -0.09989375621080399
v -0.6000000238418579 -1.2796523571014404 -0.09989375621080399
v 0.6000000238418579 1.2796523571014404 -0.09989375621080399
v 0.6000000238418579 -1.2796523571014404 -0.09989375621080399
vn 0 0 1
vn 0 0 1
vn 0 0 1
vn 0 0 1
vn 1.4893602657721017e-16 -0.7901005148887634 0.6129773259162903
vn 1.4893602657721017e-16 -0.7901005148887634 0.6129773259162903
vn 1.4893602657721017e-16 -0.7901005148887634 0.6129773259162903
vn 1.4893602657721017e-16 -0.7901005148887634 0.6129773259162903
vn -1 0 0
vn -1 0 0
vn -1 0 0
vn -1 0 0
vn -1 0 0
vn 1 0 0
vn 1 0 0
vn 1 0 0
vn 1 0 0
vn 1 0 0
vn 0 0 -1
vn 0 0 -1
vn 0 0 -1
vn 0 0 -1
vn 0 -1 0
vn 0 -1 0
vn 0 -1 0
vn 0 -1 0
vn 0 1 0
vn 0 1 0
vn 0 1 0
vn 0 1 0
f 1//1 2//2 3//3
f 3//3 4//4 1//1
f 3//5 2//6 5//7
f 5//7 6//8 3//5
f 7//9 5//10 2//11
f 7//9 8//12 5//10
f 2//11 1//13 7//9
f 9//14 4//15 3//16
f 3//16 6//17 9//14
f 6//17 10//18 9//14
f 9//19 10//20 8//21
f 8//21 7//22 9//19
f 8//23 10//24 6//25
f 6//25 5//26 8//23
f 7//27 1//28 4//29
f 4//29 9//30 7//27
